<svg version="1.2" xmlns="http://www.w3.org/2000/svg" viewBox="0 0 1525 552" width="1525" height="552">
	<title>M&amp;T_Bank_wordmark-svg</title>
	<style>
		.s0 { fill: #027856 } 
	</style>
	<path id="Layer" fill-rule="evenodd" class="s0" d="m1060.9 0.7h463.2v146.5h-33.3c0 0-0.1-118.8-108.3-118.8 0 0-27.4 0-33.1 0 0 5 0 488.2 0 488.2h59.6v27.9c0 0-303.2 0.3-309 0.3-81.3 0-108.9-44.8-109.5-44.3-42.3 31.2-97 50.7-162.1 50.7-99.1 0-188.3-39.7-188.3-138.6 0-70.4 44.9-108.8 120.4-138.1-24-24.1-48.8-59.2-48.8-113.3 0-82.1 61.2-132.8 153-132.8 90.6 0 140.7 46.2 140.7 112 0 62.4-55.9 95.6-122.4 119.7l148.9 144.6c0 0 29-31.9 29-70.7 0-30.1-24.1-54.1-53.8-54.2h-11v-28.2h162.9v28.2h-5c-7.4 0-15.6 1.9-22.3 4.8-8.8 3.8-17.5 10.7-22.6 18.8-1.8 3-3.3 5.9-4.6 9.1-4.1 9.5-10.6 48.4-19.7 69.1-7.9 18.3-19.3 35.9-27.8 47.3l39 37.7c26.8 25.4 54.5 46.7 87.6 50h52c0 0 0-482.6 0-488.2-5.6 0-33 0-33 0-108.6 0-108.4 118.8-108.4 118.8h-33.3zm-257.3 123.8c0 44.9 24 82.2 52.1 109.5 43.6-23.4 63.8-62.6 63.8-108.2 0-40.9-22.1-69.7-57.9-69.7-35.9 0-58.1 28.1-58 68.4zm162.2 352.4l-179.8-176.3c-30 19.5-40.3 46.8-40.3 91.7 0 63.8 48.2 111.5 112.6 111.5 40.4 0 78-6.7 107.5-26.9zm-380.8 39.7h55v27.7h-220v-27.7h54.8c0 0 0.3-403.2 0.3-426-8.2 20.7-172.8 441.2-172.8 441.2h-28.2c0 0-166.9-420.6-175-441.2 0 18.6 0 425.9 0 425.9h69.6v27.8h-157.1v-27.8h53.3l0.1-488h-64.4v-27.9h178c0 0 144.3 358.4 149 370.1 4.6-11.6 148.2-370.1 148.2-370.1h173.6v27.8h-64.4z"/>
</svg>