<?xml version="1.0" standalone="no"?>
<!DOCTYPE svg PUBLIC "-//W3C//DTD SVG 20010904//EN"
 "http://www.w3.org/TR/2001/REC-SVG-20010904/DTD/svg10.dtd">
<svg version="1.0" xmlns="http://www.w3.org/2000/svg"
 width="536.000000pt" height="382.000000pt" viewBox="0 0 536.000000 382.000000"
 preserveAspectRatio="xMidYMid meet">

<g transform="translate(0.000000,382.000000) scale(0.100000,-0.100000)"
fill="#000000" stroke="none">
<path d="M2194 3738 c-89 -19 -242 -134 -382 -286 l-82 -89 -72 -7 c-106 -11
-234 -40 -303 -71 -171 -75 -253 -264 -199 -457 l17 -58 -55 -58 c-42 -44 -60
-72 -76 -122 -34 -106 -59 -209 -77 -315 -28 -168 -46 -236 -87 -328 -57 -130
-123 -223 -179 -252 l-26 -14 18 -98 c11 -58 18 -146 19 -214 1 -255 -85 -445
-292 -650 -54 -53 -98 -98 -98 -101 0 -3 19 -8 42 -12 l42 -7 -61 -39 c-118
-77 -220 -205 -254 -318 -15 -52 -19 -49 103 -93 69 -25 88 -35 90 -53 3 -20
8 -21 89 -20 103 2 222 31 334 81 110 50 138 73 170 144 l27 60 34 -20 c19
-12 38 -21 40 -21 3 0 5 100 3 223 -1 144 2 239 10 272 17 71 80 264 98 300
27 52 148 218 211 287 39 43 65 82 72 108 14 50 29 55 181 55 l116 0 94 -47
c52 -26 132 -69 179 -97 47 -28 99 -56 116 -61 l30 -10 -14 -78 c-7 -42 -11
-103 -9 -135 5 -52 14 -70 91 -190 118 -181 107 -170 176 -178 72 -8 81 -15
132 -97 56 -88 105 -110 170 -76 28 15 189 150 214 181 6 7 28 60 49 117 l37
104 66 -46 c37 -25 69 -47 72 -49 2 -3 -14 -20 -37 -39 -50 -41 -92 -106 -129
-198 -22 -53 -37 -74 -69 -96 -68 -47 -92 -81 -119 -164 -15 -44 -24 -81 -22
-83 4 -4 119 -22 143 -23 6 0 16 -14 22 -30 12 -35 14 -36 160 -15 195 29 324
119 304 215 -4 25 -1 34 21 51 24 19 26 26 26 103 0 116 22 158 112 205 81 44
95 55 137 108 l34 43 -27 59 c-14 32 -26 65 -26 72 0 9 51 34 133 65 l132 51
118 -119 118 -120 -10 -52 c-6 -28 -18 -118 -26 -201 -8 -82 -18 -162 -21
-177 -5 -26 -4 -27 29 -21 l35 5 -34 -97 c-24 -69 -31 -102 -24 -114 27 -52
207 -110 345 -113 78 -2 115 12 115 43 0 13 11 25 33 34 64 27 117 106 117
173 0 30 -10 55 -40 100 -22 33 -40 62 -40 66 0 3 9 6 20 6 20 0 20 0 -1 53
-30 78 -64 146 -101 201 l-32 49 18 96 c37 194 30 234 -65 376 -60 90 -69 130
-69 320 l0 143 118 12 c64 6 143 18 174 26 118 28 264 118 375 230 120 121
170 249 159 404 l-6 85 36 30 c49 41 57 106 24 183 l-22 51 37 59 c38 62 54
113 55 170 0 39 -6 40 -33 6 -27 -35 -75 -54 -137 -54 -98 0 -175 -54 -210
-147 -36 -96 -24 -166 40 -239 45 -52 63 -112 58 -198 -3 -64 -8 -81 -34 -118
-40 -57 -110 -109 -219 -162 -113 -55 -190 -70 -315 -62 -144 10 -162 16 -234
84 -66 62 -139 109 -316 206 -132 73 -318 204 -390 276 -56 55 -114 147 -241
384 -56 104 -73 127 -134 179 -114 96 -278 198 -480 300 -298 148 -375 174
-461 155z m185 -173 c118 -48 399 -195 492 -257 182 -121 223 -159 275 -260
89 -174 195 -349 252 -414 49 -57 349 -267 462 -324 122 -61 205 -115 262
-172 88 -85 92 -100 89 -314 -3 -261 19 -395 79 -459 28 -30 82 -140 82 -166
0 -13 -7 -58 -17 -99 -10 -47 -15 -103 -13 -150 3 -67 7 -81 41 -130 41 -61
40 -63 -36 -74 -26 -4 -68 -16 -93 -27 -25 -12 -48 -18 -51 -15 -9 9 15 187
37 266 11 41 20 81 20 88 0 8 -24 39 -53 70 -100 107 -141 184 -136 256 4 39
1 46 -16 50 -32 8 -138 79 -178 120 -63 62 -85 120 -97 248 -6 62 -13 134 -16
160 -7 51 -36 108 -57 108 -7 0 -36 -18 -66 -40 -29 -22 -63 -40 -75 -40 -44
0 -99 90 -116 193 -25 147 -48 228 -81 281 -35 59 -95 124 -104 114 -3 -3 6
-44 19 -92 35 -119 49 -208 44 -269 -4 -48 -40 -137 -85 -212 -84 -139 -77
-117 -78 -260 0 -163 -13 -193 -135 -320 -89 -93 -160 -205 -174 -275 -13 -69
-78 -254 -108 -307 -24 -42 -41 -59 -80 -79 -72 -36 -85 -31 -126 51 -29 57
-36 82 -36 134 l-1 64 59 46 c53 42 126 139 156 209 12 29 13 243 0 296 -8 36
-6 42 25 78 59 70 64 142 15 239 l-18 35 34 64 c44 82 45 105 4 97 l-30 -6 -2
57 c-3 93 0 106 42 193 22 46 40 96 40 111 0 16 5 28 13 28 22 0 135 94 170
140 63 86 82 143 82 255 0 88 -3 107 -27 158 -51 109 -119 169 -251 222 -48
19 -93 35 -101 35 -11 0 -9 -15 10 -75 25 -79 30 -140 15 -164 -8 -12 -14 -13
-36 -3 -22 10 -44 10 -105 1 -103 -16 -158 -4 -293 61 -102 50 -107 54 -124
99 -11 29 -18 72 -18 116 1 58 6 81 33 136 17 37 50 85 73 108 23 22 42 41 43
41 2 0 30 -11 65 -25z m-764 -369 c-39 -76 -45 -128 -18 -179 l16 -32 17 37
c16 37 17 37 41 21 37 -27 58 -53 86 -112 30 -63 43 -183 24 -219 -25 -48
-117 -17 -245 80 -85 66 -129 127 -160 227 l-24 76 -17 -40 c-25 -57 -31 -160
-11 -215 8 -24 14 -46 12 -47 -8 -8 -36 49 -52 102 -48 166 48 296 256 348 68
17 103 24 108 22 1 -1 -14 -32 -33 -69z m1275 -102 c88 -58 137 -188 114 -303
-10 -47 -19 -37 -16 16 4 49 -10 103 -26 103 -5 0 -17 -18 -27 -41 -10 -22
-35 -53 -56 -70 l-37 -29 -12 57 c-7 31 -19 71 -27 89 -15 29 -14 33 12 72 18
27 27 55 28 86 1 25 3 46 5 46 1 0 20 -12 42 -26z m-644 -115 c77 -41 162
-107 213 -165 44 -50 45 -50 56 29 7 53 26 71 86 80 80 12 139 -67 139 -186 0
-102 -35 -170 -102 -198 l-31 -12 7 -81 c3 -45 13 -145 22 -224 9 -79 13 -146
9 -150 -11 -11 -105 -4 -154 13 -44 14 -49 20 -89 98 -23 45 -55 100 -72 122
-24 33 -30 51 -31 95 -2 48 1 56 30 82 17 15 31 30 31 33 0 3 -27 5 -61 5 -83
0 -116 18 -195 107 l-67 74 -2 92 c0 56 -7 109 -17 135 l-16 43 37 19 c58 31
136 27 207 -11z m-181 -437 c-9 -48 2 -72 31 -72 16 0 23 -4 18 -11 -3 -6 0
-15 7 -20 10 -6 4 -9 -17 -9 -68 0 -114 76 -93 153 l10 39 25 -23 c21 -19 24
-30 19 -57z m658 -82 c16 0 17 -3 7 -15 -25 -30 -69 -13 -56 22 5 12 9 14 18
5 7 -7 21 -12 31 -12z m3 -139 c-23 -44 -33 -45 -38 -6 -3 30 0 38 21 48 33
16 39 1 17 -42z m-236 -303 c62 -25 85 -29 130 -25 30 3 64 8 75 13 15 5 12
-2 -12 -27 -30 -32 -33 -41 -33 -98 0 -60 -1 -62 -22 -54 -29 10 -88 9 -110
-1 -15 -7 -18 -3 -18 22 0 17 5 43 11 59 9 23 8 30 -6 38 -10 6 -44 28 -76 49
-33 21 -63 36 -67 32 -4 -5 -6 -61 -4 -127 1 -65 0 -119 -3 -119 -13 0 -36 68
-42 123 -4 44 -1 80 11 120 l17 57 37 -16 c20 -9 71 -30 112 -46z m230 -186
c24 -80 -31 -172 -113 -187 -81 -15 -168 43 -183 122 -6 32 8 118 22 132 11
11 12 -8 2 -45 -32 -117 124 -215 214 -135 30 27 33 34 33 88 0 32 -4 69 -8
83 -9 24 -8 24 6 5 8 -11 20 -39 27 -63z m-395 -497 c50 -47 93 -85 97 -85 4
0 10 11 14 25 4 17 -4 41 -27 81 -35 63 -32 62 56 -7 l60 -47 -5 -63 c-6 -75
-17 -84 -116 -94 -75 -8 -164 14 -200 50 -21 21 -24 33 -24 98 0 60 4 79 21
101 11 14 23 26 27 26 4 0 48 -38 97 -85z m2200 -810 c28 -53 29 -56 15 -98
-8 -23 -20 -42 -27 -42 -7 0 -23 20 -36 45 -23 44 -83 88 -99 72 -4 -4 -2 -38
5 -75 9 -58 9 -70 -3 -77 -26 -16 -136 -11 -176 7 -34 17 -36 20 -31 55 3 20
16 61 30 91 28 62 68 86 183 110 69 15 69 15 89 -9 11 -13 33 -48 50 -79z
m-3965 16 c30 -11 89 -40 130 -63 61 -35 76 -49 84 -76 8 -28 6 -37 -11 -54
-27 -27 -156 -78 -214 -85 -60 -7 -89 18 -89 76 0 52 -10 101 -22 101 -11 0
-108 -150 -108 -167 0 -8 -15 -13 -40 -13 l-39 0 13 45 c16 50 88 158 150 223
46 48 51 49 146 13z m2535 -26 c33 -16 62 -31 64 -32 2 -1 -6 -15 -18 -32 -15
-20 -40 -36 -83 -50 -78 -26 -97 -26 -170 1 l-59 21 35 35 c29 30 151 94 166
89 3 -2 32 -16 65 -32z"/>
</g>
</svg>
